<svg xmlns="http://www.w3.org/2000/svg" width="16" height="16" viewBox="0 0 16 16">
  <path d="M15.682716,14.5139918 L11.8277092,10.6589849 C13.7659808,8.13923182 13.5721536,4.49958848 11.2462277,2.1951989 C9.97558299,0.924554184 8.3388203,0.3 6.68052126,0.3 C5.02222222,0.3 3.38545953,0.924554184 2.11481481,2.1951989 C-0.404938272,4.71495199 -0.404938272,8.80685871 2.11481481,11.3266118 C3.38545953,12.5972565 5.02222222,13.2218107 6.68052126,13.2218107 C8.05884774,13.2218107 9.43717421,12.7910837 10.5786008,11.9080933 L14.455144,15.7415638 C14.6274348,15.9138546 14.8427984,16 15.0796982,16 C15.2950617,16 15.5319616,15.9138546 15.7042524,15.7415638 C16.0272977,15.4185185 16.0272977,14.8585734 15.682716,14.5139918 Z M6.70205761,11.4773663 C5.43141289,11.4773663 4.26844993,10.9820302 3.36392318,10.0990398 C1.53333333,8.26844993 1.53333333,5.27489712 3.36392318,3.42277092 C4.24691358,2.53978052 5.43141289,2.04444444 6.70205761,2.04444444 C7.97270233,2.04444444 9.13566529,2.53978052 10.040192,3.42277092 C10.9447188,4.30576132 11.4185185,5.49026063 11.4185185,6.76090535 C11.4185185,8.03155007 10.9231824,9.19451303 10.040192,10.0990398 C9.15720165,11.0035665 7.95116598,11.4773663 6.70205761,11.4773663 Z" opacity=".4"/>
</svg>
