<svg xmlns="http://www.w3.org/2000/svg" width="16" height="18" viewBox="0 0 16 18">
  <g opacity=".7">
    <path d="M7.99985535 5C7.7307923 5 7.25475768 5 6.902906 5L1.56303938 5C1.23188486 5 .962821818 5.25722983 1.00421613 5.59360731L2.26674274 17.4063927C2.30813705 17.7229833 2.61859441 18 2.94974893 18L6.902906 18C7.25475768 18 7.7307923 18 7.99985535 18 8.26891839 18 8.74495301 18 9.09680469 18L13.0499618 18C13.4018134 18 13.6915736 17.7427702 13.732968 17.4063927L14.9954946 5.59360731C15.0368889 5.27701674 14.788523 5 14.4366713 5L9.09680469 5C8.74495301 5 8.26891839 5 7.99985535 5zM11.0437018 1.51515152C10.6940874 1.51515152 10.4267352 1.23232323 10.4267352.909090909L10.4267352.606060606C10.4267352.262626263 10.159383 0 9.80976864 0L6.14910026 0C5.79948586 0 5.53213368.262626263 5.53213368.606060606L5.53213368.909090909C5.53213368 1.23232323 5.26478149 1.51515152 4.9151671 1.51515152L.616966581 1.51515152C.287917738 1.51515152 0 1.7979798 0 2.12121212L0 3.39393939C0 3.71717172.287917738 4 .616966581 4L6.91002571 4C7.2596401 4 7.73264781 4 8 4 8.26735219 4 8.7403599 4 9.08997429 4L15.3830334 4C15.7326478 4 16 3.71717172 16 3.39393939L16 2.12121212C16 1.7979798 15.7326478 1.51515152 15.3830334 1.51515152L11.0437018 1.51515152z"/>
  </g>
</svg>
