<svg xmlns="http://www.w3.org/2000/svg" width="6" height="8" viewBox="0 0 6 8">
  <defs>
    <linearGradient id="hash-a" x1="50%" x2="50%" y1="0%" y2="100%">
      <stop offset="0%" stop-color="#949EFF"/>
      <stop offset="100%" stop-color="#746FEC"/>
    </linearGradient>
  </defs>
  <path fill="url(#hash-a)" fill-rule="evenodd" d="M1.32,46.756 L0.275,46.756 L0.275,45.898 L1.441,45.898 L1.661,44.314 L0.616,44.314 L0.616,43.456 L1.782,43.456 L2.09,41.212 L2.959,41.212 L2.651,43.456 L3.927,43.456 L4.235,41.212 L5.104,41.212 L4.796,43.456 L5.841,43.456 L5.841,44.314 L4.675,44.314 L4.455,45.898 L5.5,45.898 L5.5,46.756 L4.334,46.756 L4.026,49 L3.157,49 L3.465,46.756 L2.189,46.756 L1.881,49 L1.012,49 L1.32,46.756 Z M2.53,44.314 L2.31,45.898 L3.586,45.898 L3.806,44.314 L2.53,44.314 Z" transform="translate(0 -41)"/>
</svg>
